<svg width="180" height="75" viewBox="0 0 180 75" fill="none" xmlns="http://www.w3.org/2000/svg">
<g clip-path="url(#clip0_3275_3013)">
<path fill-rule="evenodd" clip-rule="evenodd" d="M22.5121 25.1405L14.9002 15.5193H0.203125V53.7933H14.3715V35.1314H14.4769L21.4547 44.1185L28.2737 35.1314H28.379V53.7933H44.1334V15.5193H29.8596L22.5121 25.1405ZM56.7043 19.6394C52.7585 19.6394 48.7859 15.5193 48.7859 15.5193V53.7933H64.5403V15.5193C64.5403 15.5193 60.6367 19.6394 56.7043 19.6394ZM95.731 33.6527C91.9768 30.6914 86.6902 30.0574 85.1043 29.5824C84.4703 29.3717 83.888 29.0537 83.888 28.2607C83.888 27.6784 84.3113 27.0981 85.8436 27.0981C87.7993 27.0981 92.4518 27.9964 97.4204 30.4807V17.9519C93.9305 16.1553 88.4333 14.939 83.7807 14.939C74.1059 14.939 68.1853 20.1719 68.1853 27.8374C68.1853 31.538 69.5606 34.0223 71.568 35.8209C75.4793 39.2572 80.8195 39.8395 82.6698 40.3145C83.3574 40.4735 83.8324 40.7895 83.8324 41.5308C83.8324 42.1648 83.4627 42.7988 81.8768 42.7988C79.6032 42.7988 74.422 41.5825 69.2944 38.2516V51.2573C73.0486 53.213 78.8102 54.3756 83.6217 54.3756C93.6662 54.3756 99.5868 49.248 99.5868 41.8985C99.5868 38.4623 98.3188 35.7654 95.7272 33.6507L95.731 33.6527ZM137.759 15.5193H100.648V28.5251H111.326V53.7952H127.081V28.5251H137.759V15.5193ZM164.931 15.5193L161.126 28.6304H161.02L156.103 15.5193H139.715L151.504 39.9965C150.501 40.5252 149.179 40.7359 147.593 40.7359C142.94 40.7359 138.87 39.0446 135.223 36.771V51.3627C138.501 53.3183 143.841 54.3756 148.809 54.3756C157.163 54.3756 166.414 51.4144 171.013 39.2553L180 15.5193H164.933H164.931Z" fill="white"/>
<path fill-rule="evenodd" clip-rule="evenodd" d="M3.25814 66.8089C3.25814 64.1235 5.22527 62.1161 8.09458 62.1161C9.61159 62.1161 11.1075 62.6697 12.1936 63.4071V60.1068C11.0252 59.5322 9.56946 59.1836 8.07351 59.1836C3.30027 59.1855 0 62.5452 0 66.8491C0 71.1531 3.30027 74.4725 8.07543 74.4725C9.5503 74.4725 11.1497 74.1641 12.4196 73.488V70.1685C11.1899 71.0094 9.75525 71.5419 8.21717 71.5419C5.16398 71.5419 3.25814 69.4522 3.25814 66.807V66.8089ZM38.592 59.4096L32.566 74.2484H35.9065L37.1152 71.1339H43.0989L44.2884 74.2484H47.7726L41.7467 59.4096H38.59H38.592ZM38.1208 68.5711L38.7145 66.9928C39.1857 65.742 39.7182 64.2671 40.109 63.1389H40.1492C40.538 64.2671 41.0724 65.742 41.5015 66.9104L42.1163 68.5711H38.1188H38.1208ZM74.3146 65.4355C72.5313 64.8418 71.158 64.7383 71.158 63.4263C71.158 62.4417 71.9567 62.0318 73.0638 62.0318C74.1709 62.0318 76.0366 62.482 77.613 63.4665V60.2486C76.322 59.5514 74.5387 59.1836 73.083 59.1836C69.9685 59.1836 67.8769 60.9056 67.8769 63.6714C67.8769 66.2534 69.7214 67.259 71.7709 67.9352C73.6768 68.55 75.0712 68.6726 75.0712 70.046C75.0712 71.1531 74.1901 71.6243 73.0006 71.6243C71.8111 71.6243 69.844 71.1531 68.2657 70.0862V73.3865C69.6601 74.1047 71.4836 74.4725 72.9585 74.4725C76.1553 74.4725 78.3485 72.7295 78.3485 69.841C78.3485 67.2169 76.5441 66.173 74.3108 65.4336L74.3146 65.4355ZM99.5235 74.2484H102.782V59.4096H99.5235V74.2484ZM135.062 64.9222C135.062 66.3569 135.083 67.7915 135.102 69.2051L135.062 69.2262C134.139 67.9352 133.239 66.6844 132.275 65.3934L127.828 59.4096H124.753V74.2484H127.889V68.7358C127.889 67.3012 127.868 65.8665 127.849 64.4529L127.889 64.4319C128.812 65.7228 129.712 66.9736 130.676 68.2646L135.124 74.2484H138.198V59.4096H135.062V64.9222ZM167.261 59.1836C162.853 59.1836 159.513 62.503 159.513 66.828C159.513 71.1531 162.853 74.4725 167.261 74.4725C171.668 74.4725 175.008 71.1531 175.008 66.828C175.008 62.503 171.668 59.1836 167.261 59.1836ZM167.261 71.5208C164.698 71.5208 162.773 69.4503 162.773 66.828C162.773 64.2058 164.7 62.1353 167.261 62.1353C169.821 62.1353 171.748 64.2058 171.748 66.828C171.748 69.4503 169.821 71.5208 167.261 71.5208Z" fill="#FFE93F"/>
<path d="M56.6561 16.3834C61.0726 16.3834 64.653 12.8031 64.653 8.38654C64.653 3.96998 61.0726 0.389648 56.6561 0.389648C52.2395 0.389648 48.6592 3.96998 48.6592 8.38654C48.6592 12.8031 52.2395 16.3834 56.6561 16.3834Z" fill="#FFE93F"/>
</g>
<defs>
<clipPath id="clip0_3275_3013">
<rect width="180" height="74.0847" fill="white" transform="translate(0 0.389648)"/>
</clipPath>
</defs>
</svg>
