<?xml version="1.0" encoding="utf-8"?>
<!-- Generator: Adobe Illustrator 24.3.0, SVG Export Plug-In . SVG Version: 6.00 Build 0)  -->
<svg xmlns="http://www.w3.org/2000/svg" xmlns:xlink="http://www.w3.org/1999/xlink" version="1.1" id="Слой_1" x="0px" y="0px" viewBox="0 0 3552 1005.1" style="enable-background:new 0 0 3552 1005.1;" xml:space="preserve" width="3552" height="1005.1">
<style type="text/css">
	.st0{fill:#12282A;}
	.st1{fill:#E5A235;}
	.st2{fill:#FFFFFF;}
</style>
<path class="st0" d="M3419.9,6.6h-718c-37.4,0-71.2,15.5-95.2,40.3c-12.2-6.7-25-12.7-38.5-17.8c-40-15-86-22.6-136.7-22.6h-220.8  c-21.5,0-41.8,5.2-59.8,14.3c-18-9.1-38.2-14.2-59.7-14.2h-141.7c-24.1,0-46.7,6.4-66.2,17.7c-19.5-11.2-42.1-17.7-66.2-17.7h-141.7  c-12.7,0-24.9,1.8-36.5,5.1c-11.5-3.3-23.5-5.1-35.8-5.1h-142.6c-30.7,0-59.9,10.8-82.9,29.3c-22.7-18.3-51.6-29.3-83.1-29.3H1154  c-38.5,0-73.1,16.4-97.3,42.5C1005,16.7,939.5,0.3,861,0.3h-29.2C726.4,0.3,644.5,30,588.1,88.4C530.4,34.1,451.6,6.5,353.5,6.5  h-222C58.8,6.5-0.4,65.2-0.4,137.3v730.1c0,72.1,59.2,130.8,131.9,130.8h141.8c24.1,0,46.7-6.4,66.2-17.7  c19.7,11.3,42.4,17.7,66.2,17.7h649.1c16.9,0,33.7-3.4,49.3-9.7c15.4,6.2,32.2,9.7,49.8,9.7h140.5c24.9,0,48.2-6.9,68.2-18.8  c20.1,12,43.5,18.8,68.2,18.8H1604c32.2,0,63-12.3,86.1-33.8c48.7,26.2,108.2,39.5,177.8,39.5h29.3c85.1,0,155-19.3,208.5-57.3  c24.1,31.3,62.2,51.6,104.9,51.6h221.5c1.2,0,2.5,0,3.7,0c49.9,0,95.3-7.5,135-22.3c12.9-4.8,25.2-10.5,37-16.9  c24,24.1,57.3,39.2,94.1,39.2h314c29.7,0,57.1-10,78.9-26.8c22.2,16.8,50,26.9,80.1,26.9h141.7c72.8,0,132.1-58.7,132.1-130.9V337.6  c59-13,103.3-65.4,103.3-127.8v-72.3C3552,65.3,3492.8,6.6,3419.9,6.6L3419.9,6.6z M3419.9,127.3c3.1,0,6,1.1,8,3  C3425.9,128.4,3423,127.3,3419.9,127.3z M2859.6,221.9c0.3-0.2,0.6-0.4,0.8-0.6C2860.2,221.5,2859.9,221.7,2859.6,221.9z   M2861.4,220.7c0.3-0.2,0.7-0.3,1-0.5C2862,220.4,2861.7,220.5,2861.4,220.7z M2863.3,219.8c0.3-0.1,0.7-0.2,1.1-0.3  C2864,219.6,2863.6,219.6,2863.3,219.8z M2856.6,227.1c0.1-0.3,0.2-0.5,0.3-0.7C2856.7,226.7,2856.6,226.9,2856.6,227.1z   M2858.3,223.5c0.2-0.3,0.4-0.5,0.6-0.7C2858.7,223,2858.5,223.2,2858.3,223.5z M2442.6,435.4c-1.4,1.1-2.9,2.1-4.4,2.9  C2439.7,437.5,2441.1,436.5,2442.6,435.4z M2420.1,444c-2.9,0.3-5.9,0.5-9,0.5C2414.2,444.5,2417.2,444.4,2420.1,444z M2366.4,220.6  c1.8-1.1,4-1.8,6.5-1.8C2370.5,218.8,2368.3,219.5,2366.4,220.6z M2372.9,444.6c-2.4,0-4.6-0.6-6.5-1.7  C2368.3,444,2370.5,444.6,2372.9,444.6z M2366.4,539.1c1.8-1.1,4-1.8,6.5-1.8C2370.5,537.3,2368.3,537.9,2366.4,539.1z   M2372.9,784.7c-2.4,0-4.6-0.6-6.5-1.7C2368.3,784.1,2370.5,784.7,2372.9,784.7z M2411.1,537.3c4.1,0,8.1,0.3,12,1.1  c1.9,0.4,3.8,0.8,5.6,1.4c1.8,0.6,3.6,1.2,5.3,2c-1.7-0.8-3.5-1.5-5.3-2c-1.8-0.6-3.7-1-5.6-1.4  C2419.3,537.7,2415.3,537.3,2411.1,537.3z M2455.1,419.7c-1.4,2.9-3,5.5-4.8,7.9C2452,425.2,2453.6,422.6,2455.1,419.7  c1.9-3.9,3.5-8.3,4.9-13.3C2458.6,411.4,2456.9,415.8,2455.1,419.7z M2456.6,247.5c0.9,2.5,1.7,5.1,2.5,8c0.8,2.9,1.4,6,2,9.4  c-0.6-3.4-1.3-6.4-2-9.4C2458.3,252.6,2457.5,250,2456.6,247.5z M2464.6,363.3c0,15.7-1.3,28.7-3.7,39.3  C2463.3,392,2464.6,379,2464.6,363.3z M2468.4,686.4v-56.3c0-4.4-0.1-8.7-0.3-12.7c-0.4-10.1-1.5-19.2-3.1-27.1  c-0.6-3.2-1.3-6.2-2.1-9c0.8,2.8,1.5,5.8,2.1,9c1.6,7.9,2.6,16.9,3.1,27.1c0.2,4.1,0.3,8.3,0.3,12.7V686.4z M2467.2,876.1  c-2.1,0.2-4.2,0.4-6.4,0.6C2462.9,876.5,2465.1,876.4,2467.2,876.1z M2454.5,877c-2.2,0.1-4.4,0.2-6.6,0.3  C2450.1,877.3,2452.3,877.1,2454.5,877z M2479.3,874.7c-2,0.3-4,0.6-6.1,0.8C2475.3,875.3,2477.3,875,2479.3,874.7z M2566.8,842.8  c-1.3,0.9-2.6,1.9-4,2.8C2564.2,844.6,2565.4,843.7,2566.8,842.8z M2558.9,848c-1.4,0.9-2.8,1.7-4.2,2.6  C2556.2,849.7,2557.6,848.9,2558.9,848z M2550.7,852.8c-1.5,0.8-2.9,1.6-4.4,2.3C2547.8,854.4,2549.2,853.6,2550.7,852.8z   M2541.9,857.2c-1.5,0.7-3.1,1.4-4.6,2.1C2538.9,858.7,2540.4,857.9,2541.9,857.2z M2865.5,219.2c0.4-0.1,0.7-0.1,1.1-0.1  C2866.2,219.1,2865.8,219.1,2865.5,219.2z M2702,127.3c-1.6,0-3.1,0.3-4.4,0.8C2698.9,127.6,2700.4,127.3,2702,127.3z M1899.2,788.4  c3-0.5,5.8-1.2,8.5-2.1c2.6-1,5.1-2.2,7.4-3.7c2.3-1.5,4.3-3.4,6.2-5.6c12-14,17-42.4,17-97.5c0,55.1-4.9,83.5-17,97.5  c-1.9,2.2-4,4.1-6.2,5.6c-2.3,1.5-4.7,2.8-7.4,3.7C1905,787.2,1902.2,787.9,1899.2,788.4c-3,0.5-6.3,0.8-9.7,0.9  C1892.9,789.2,1896.1,788.9,1899.2,788.4z M1826.7,131.8c1.2,1.6,1.9,3.6,1.9,5.7v541.9c0,23.2,0.7,41.7,2.4,56.3  c2.3,20.1,6.6,33.1,13.4,41.2c-6.8-8.1-11.1-21-13.4-41.2c-1.7-14.7-2.4-33.1-2.4-56.3V137.5  C1828.6,135.4,1827.9,133.4,1826.7,131.8c-0.8-1.1-1.8-2-3.1-2.8C1824.8,129.8,1825.9,130.7,1826.7,131.8z M830.8,213.9  c-2.1,0.3-4.1,0.6-6,1.1C826.7,214.6,828.7,214.2,830.8,213.9z M863.3,213.9c-4.1-0.6-8.7-0.8-13.6-0.8  C854.6,213.1,859.1,213.3,863.3,213.9z M857,611c-2.3,0.1-4.8,0.2-7.3,0.2C852.2,611.2,854.6,611.2,857,611z M844.4,213.1  c-2.5,0-4.8,0-7.1,0.2C839.6,213.2,842,213.1,844.4,213.1z M798.6,242c-1.2,3.8-2.3,8.1-3.2,12.9C796.3,250.1,797.4,245.8,798.6,242  z M790.9,323.4c0-24.2,0.9-43.2,2.8-58C791.8,280.2,790.9,299.2,790.9,323.4z M545.7,779.8c-1-0.5-2-1-2.8-1.7  c-0.8-0.7-1.5-1.5-2.1-2.4c0.6,0.9,1.3,1.7,2.1,2.4C543.8,778.8,544.7,779.3,545.7,779.8z M507,520.8  c-15.7,11.3-35.1,18.7-58.1,24.2c-2.4,0.7-4,2.6-4.2,4.7c0.2-2.1,1.8-4,4.2-4.7C471.9,539.5,491.2,532.1,507,520.8L507,520.8z   M1142.8,137c0.1-1.9,0.8-3.7,1.9-5.2C1143.5,133.3,1142.9,135.1,1142.8,137z M470.8,151.7c5.6,2.9,11,6.1,16,9.6  C481.7,157.9,476.4,154.7,470.8,151.7z M401.9,130.5c-7.5-1.1-15.3-1.9-23.3-2.5C386.6,128.6,394.4,129.4,401.9,130.5z M284.7,867.4  V221.2V867.4L284.7,867.4z M1868.1,883.2c-27.2,0-51.4-2.5-72.8-7.4c-7.1-1.7-13.9-3.5-20.4-5.7c6.5,2.2,13.3,4.1,20.4,5.7  C1816.7,880.7,1840.8,883.2,1868.1,883.2z M2199.9,869.5c0.3,1.3,0.9,2.5,1.7,3.5C2200.7,871.9,2200.1,870.7,2199.9,869.5z   M2432.8,877.5c2.9,0,5.7,0,8.5-0.1c-1.8,0-3.5,0.1-5.3,0.1C2434.9,877.5,2433.9,877.5,2432.8,877.5z M2702,877.5  c-0.6,0-1.1-0.1-1.7-0.2C2700.9,877.4,2701.5,877.5,2702,877.5z M3163.6,867.3V230.2c0-5.6-5.1-10.2-11.3-10.2  c6.3,0,11.3,4.6,11.3,10.2V867.3L3163.6,867.3z M3175,877.5c-0.8,0-1.6-0.1-2.3-0.2C3173.4,877.5,3174.2,877.5,3175,877.5z   M3420,220.1c3.1,0,6-1.1,8-3C3426,219,3423.1,220.1,3420,220.1z"/>
<path class="st1" d="M2529.7,442.2c-1.6-0.4-1.6-2.4,0-2.6c90.3-14.2,104.4-90.9,103.2-135v-28.7c0-117.8-52.3-201.5-201.4-201.5  h-220.8c-6.2,0-11.2,4.6-11.2,10.2v730c0,5.4,5,10,11.2,10h222c147.9,1.2,204-81.1,204-202.7v-44.7  C2636.6,527.7,2614.4,453.2,2529.7,442.2z M2361.4,176.2c0-5.4,5-10.2,11.4-10.2h34.5c38.3,0,57.3,10.4,57.3,98.7v45.7  c0,62.9-20.4,81.3-53.5,81.3h-38.2c-6.4,0-11.4-4.4-11.4-10.2L2361.4,176.2L2361.4,176.2z M2409.8,731.9h-37.1  c-6.4,0-11.4-4.4-11.4-10.2v-227c0-5.6,5-10.2,11.4-10.2h38.2c33,0,57.3,21.7,57.3,92.7v56.3  C2469.7,712.4,2450.4,731.8,2409.8,731.9L2409.8,731.9z"/>
<path class="st1" d="M3419.9,74.4h-718c-6.3,0-11.4,4.6-11.4,10.2v561.4c0,5.6,5.1,10.2,11.4,10.2h311.3c6.3,0,11.4-4.6,11.4-10.2  v-72.3c0-5.6-5.1-10.2-11.4-10.2h-145.5c-6.3,0-11.4-4.6-11.4-10.2V401.9c0-5.6,5.1-10.2,11.4-10.2h108.5c6.3,0,11.4-4.6,11.4-10.2  v-73.5c0-5.6-5.1-10.2-11.4-10.2h-108.5c-6.3,0-11.4-4.6-11.4-10.2V176.2c0-5.7,5.1-10.2,11.4-10.2l284.5,1.1  c6.3,0,11.3,4.6,11.3,10.2v637.1c0,5.6,5.1,10.2,11.4,10.2h141.7c6.3,0,11.4-4.6,11.4-10.2V177.4c0-5.6,5.1-10.2,11.4-10.2h80.6  c6.3,0,11.4-4.6,11.4-10.2V84.6C3431.3,79,3426.2,74.4,3419.9,74.4L3419.9,74.4z"/>
<path class="st1" d="M3016,728h-314c-6.3,0-11.4,4.6-11.4,10.2v76.2c0,5.6,5.1,10.2,11.4,10.2h314c4.8,0,8.7-3.5,8.7-7.7v-81.1  C3024.6,731.5,3020.8,728,3016,728L3016,728z"/>
<path class="st2" d="M1294.5,74.4H1154c-6.3,0-11.4,4.6-11.4,10.2v729.8c0,5.6,5.1,10.2,11.4,10.2h140.5c6.3,0,11.4-4.6,11.4-10.2  V84.6C1305.8,79,1300.7,74.4,1294.5,74.4z"/>
<path class="st2" d="M1463.8,388.6c-1.6-4.7-1.2-9.7,0.9-14.2l143.5-292.9c1.7-3.4-1.1-7.2-5.2-7.2h-142.6c-4.8,0-9.1,2.8-10.7,6.8  l-123.5,317.5c-0.8,2.2-1.3,4.5-1.3,6.8V450c0,1.6,0.2,3.1,0.6,4.6l94.2,362.1c1.2,4.6,5.8,7.9,11.1,7.9H1604c3.8,0,6.5-3.3,5.4-6.6  L1463.8,388.6L1463.8,388.6z"/>
<path class="st2" d="M2091.3,74.4h-141.7c-6.3,0-11.4,4.6-11.4,10.2v541.9c0,92.8-14,109.9-52.3,109.9h-5.1  c-40.8,0-52.2-17.2-52.2-109.9V84.6c0-5.6-5.1-10.2-11.4-10.2h-141.7c-6.3,0-11.4,4.6-11.4,10.2v541.9  c0,132.8,58.6,203.9,203.9,203.9h29.3c146.6,0,205.3-68.7,205.3-203.9V84.6C2102.6,79,2097.6,74.4,2091.3,74.4L2091.3,74.4z"/>
<path class="st2" d="M1054.8,727.9H550.6c-4.7,0-8.9-2.6-10.6-6.6L528.8,695l-57.1-133.9L445,499c-1.2-2.9,0.6-5.9,3.8-6.8  c73.7-17.7,110-54.5,110-178.4v-42.3c0-126-67.7-197.1-205.3-197.1h-222c-6.2,0-11.2,4.5-11.2,10.1v730.1c0,5.6,5,10.1,11.2,10.1  h141.8c6.2,0,11.2-4.5,11.2-10.1V168.3h37.1c44.7,0,63.7,21.8,63.7,108.9v50.4c0,68.6-15.2,91.6-71.3,91.6h-4.2c-4.2,0-6,2.7-6,6.3  V475c0.1,0.5,0.1,1,0.2,1.5l90.7,340.3c1.2,4.6,5.8,7.8,11.1,7.8h649.1c2.4,0,4.4-0.7,6.2-1.8c0.6-0.4,1.2-0.7,1.8-1.2  c2-1.8,3.2-4.3,3.2-7.2v-76.2C1066,732.5,1061,727.9,1054.8,727.9L1054.8,727.9z"/>
<path class="st2" d="M861,68.2h-29.2c-151.9,0-204.1,75.1-204.1,202.4v199.5c0,127.5,54.9,202.5,202.7,202.5h34.5  c178.5,0,201.3-89.9,201.3-202.5V270.5C1066.2,143.3,1013.9,68.2,861,68.2L861,68.2z M903.1,449.1c0,95.7-12.8,109.2-53.5,109.2  h-5.2c-40.7,0-53.5-13.6-53.5-109.2V270.5c0-96.7,14-110.3,53.5-110.3h5.2c39.5,0,53.5,13.6,53.5,110.3V449.1z"/>
</svg>
